<?xml version="1.0" encoding="UTF-8"?>
<svg id="Calque_1" xmlns="http://www.w3.org/2000/svg" version="1.1" viewBox="0 0 1942.51 1174.12">
  <!-- Generator: Adobe Illustrator 29.6.1, SVG Export Plug-In . SVG Version: 2.1.1 Build 9)  -->
  <defs>
    <style>
      .st0 {
        font-family: UbuntuArabic-Bold, 'Ubuntu Arabic';
        font-size: 142.14px;
        font-weight: 700;
      }

      .st0, .st1 {
        fill: #fff;
      }
    </style>
  </defs>
  <path class="st1" d="M82.52,367.39c0-20.01-.01-40-.05-60.02-27.49-.06-54.98-.17-82.47.05.05,26.5.05,53,.05,79.56h61.36c11.66,0,21.11-8.77,21.11-19.59Z"/>
  <path class="st1" d="M1736.52,95.9c0-31.93-.02-63.82-.08-95.77-43.87-.09-87.73-.27-131.6.09.08,42.29.08,84.57.08,126.95h97.91c18.6,0,33.68-14,33.68-31.26Z"/>
  <path class="st1" d="M1455.41,261.33h147.98v457.79h134.38V185.61c0-20.08-19.46-36.36-43.47-36.36h-218.15c-11.46,0-20.74,8.62-20.74,19.25v92.83Z"/>
  <path class="st1" d="M1859.57,844c53.56-49.94,83.02-116.26,82.94-186.63l-.9-508.17-93.23.14c-23.21.04-41.99,17.52-41.95,39.06l.83,469.36c.09,76.18-66.38,139.07-148.18,140.19l-55.07,1.44v123.32l53.58-.68c75.65-1.03,148.66-28.32,201.98-78.04Z"/>
  <path class="st1" d="M-.36,448.12h78.21v273.44H-.36v-273.44Z"/>
  <path class="st1" d="M136.51,515.27h141.31c11.58,0,20.98,9.39,20.98,20.98v37.68h-141.31c-11.58,0-20.98-9.39-20.98-20.98v-37.68Z"/>
  <path class="st1" d="M673.56,584v-195.83h78.21v193.85c0,46,33.89,67.69,71.69,67.69s71.7-21.69,71.7-67.69v-193.85h78.21v195.83c0,57.17-42.36,138.66-149.91,138.66s-149.91-81.48-149.91-138.66Z"/>
  <path class="st1" d="M1263.41,618.58c0,67.32-52.79,103.62-127.09,103.62-69.09,0-113.41-31.68-133.61-50.16l41.71-62.04c27.38,26.4,61.92,39.6,93.86,39.6,26.72,0,46.93-9.24,46.93-28.38,0-56.76-177.28-21.78-177.28-142.56,0-60.72,44.97-95.7,118.62-95.7,64.53,0,106.89,26.4,135.57,50.16l-41.71,61.38c-34.54-29.04-68.44-38.94-95.16-38.94s-39.11,8.58-39.11,21.78c0,48.18,177.28,17.82,177.28,141.24Z"/>
  <path class="st1" d="M1454.37,382.3v71.69c-52.14,0-83.43,25.42-83.43,77.56v191.67h-78.21v-182.49c0-108.25,62.57-158.43,161.64-158.43Z"/>
  <path class="st1" d="M626.21,306.85v255.65c0,106.1-52.11,159.15-156.33,159.15-27.47,0-53.71-3.67-78.73-11.01-25.03-7.34-45.62-17.97-61.8-31.89l31.6-53.05c12.79,10.91,28.4,19.56,46.84,25.96,18.43,6.39,37.81,9.59,58.13,9.59,30.85,0,53.52-7.43,68-22.29,14.48-14.87,21.73-37.71,21.73-68.57v-14.11c-11.29,12.42-25.03,21.92-41.2,28.5-16.18,6.59-33.68,9.88-52.49,9.88-40.26,0-71.96-11.09-95.09-33.3-23.14-22.19-34.71-55.49-34.71-99.89v-154.63h70.54v145.6c0,26.72,6.11,46.75,18.34,60.1,12.22,13.36,29.63,20.03,52.2,20.03,25.2,0,45.24-7.71,60.1-23.14,14.86-15.42,22.29-37.81,22.29-67.16v-135.45h70.54Z"/>
  <path class="st1" d="M1115.86,820.98c0-1.54.3-3.18.92-4.92.61-1.74,1.54-3.33,2.8-4.77,1.25-1.45,2.89-2.65,4.92-3.62,2.03-.96,4.42-1.45,7.18-1.45s5.24.48,7.23,1.45c1.99.96,3.65,2.17,4.97,3.62,1.32,1.45,2.28,3.04,2.89,4.77.61,1.74.92,3.38.92,4.92s-.32,3.17-.97,4.87c-.64,1.71-1.62,3.28-2.94,4.73-1.32,1.45-2.97,2.65-4.97,3.62-1.99.96-4.37,1.45-7.14,1.45s-5.05-.48-7.04-1.45c-1.99-.96-3.65-2.17-4.97-3.62-1.32-1.45-2.28-3.04-2.89-4.77-.61-1.74-.92-3.34-.92-4.82ZM1164.76,806.22c2.83,0,5.24.48,7.23,1.45,1.99.96,3.65,2.17,4.97,3.62,1.32,1.45,2.28,3.04,2.89,4.77.61,1.74.92,3.38.92,4.92s-.32,3.17-.96,4.87c-.64,1.71-1.62,3.28-2.94,4.73-1.32,1.45-2.97,2.65-4.97,3.62-1.99.96-4.37,1.45-7.14,1.45s-5.05-.48-7.04-1.45c-2-.96-3.65-2.17-4.97-3.62-1.32-1.45-2.28-3.04-2.89-4.77-.61-1.74-.92-3.34-.92-4.82s.31-3.18.92-4.92c.61-1.74,1.54-3.33,2.8-4.77,1.25-1.45,2.89-2.65,4.92-3.62,2.03-.96,4.42-1.45,7.19-1.45ZM874.86,952.52c0-1.54.3-3.18.92-4.92.61-1.74,1.54-3.33,2.8-4.77,1.25-1.45,2.89-2.65,4.92-3.62,2.03-.96,4.42-1.45,7.18-1.45s5.24.48,7.23,1.45c1.99.96,3.65,2.17,4.97,3.62,1.32,1.45,2.28,3.04,2.89,4.77.61,1.74.92,3.38.92,4.92s-.32,3.17-.97,4.87c-.64,1.71-1.62,3.28-2.94,4.73-1.32,1.45-2.97,2.65-4.97,3.62-1.99.96-4.37,1.45-7.14,1.45s-5.05-.48-7.04-1.45c-1.99-.96-3.65-2.17-4.97-3.62-1.32-1.45-2.28-3.04-2.89-4.77-.61-1.74-.92-3.34-.92-4.82ZM923.76,937.76c2.83,0,5.24.48,7.23,1.45,1.99.96,3.65,2.17,4.97,3.62,1.32,1.45,2.28,3.04,2.89,4.77.61,1.74.92,3.38.92,4.92s-.32,3.17-.96,4.87c-.64,1.71-1.62,3.28-2.94,4.73-1.32,1.45-2.97,2.65-4.97,3.62-1.99.96-4.37,1.45-7.14,1.45s-5.05-.48-7.04-1.45c-2-.96-3.65-2.17-4.97-3.62-1.32-1.45-2.28-3.04-2.89-4.77-.61-1.74-.92-3.34-.92-4.82s.31-3.18.92-4.92c.61-1.74,1.54-3.33,2.8-4.77,1.25-1.45,2.89-2.65,4.92-3.62,2.03-.96,4.42-1.45,7.19-1.45ZM1206.23,820.67c0-1.54.3-3.18.92-4.92.61-1.74,1.54-3.33,2.8-4.77,1.25-1.45,2.89-2.65,4.92-3.62,2.03-.96,4.42-1.45,7.18-1.45s5.24.48,7.23,1.45c1.99.96,3.65,2.17,4.97,3.62,1.32,1.45,2.28,3.04,2.89,4.77.61,1.74.92,3.38.92,4.92s-.32,3.17-.97,4.87c-.64,1.71-1.62,3.28-2.94,4.73-1.32,1.45-2.97,2.65-4.97,3.62-1.99.96-4.37,1.45-7.14,1.45s-5.05-.48-7.04-1.45c-1.99-.96-3.65-2.17-4.97-3.62-1.32-1.45-2.28-3.04-2.89-4.77-.61-1.74-.92-3.34-.92-4.82ZM1255.13,805.91c2.83,0,5.24.48,7.23,1.45,1.99.96,3.65,2.17,4.97,3.62,1.32,1.45,2.28,3.04,2.89,4.77.61,1.74.92,3.38.92,4.92s-.32,3.17-.96,4.87c-.64,1.71-1.62,3.28-2.94,4.73-1.32,1.45-2.97,2.65-4.97,3.62-1.99.96-4.37,1.45-7.14,1.45s-5.05-.48-7.04-1.45c-2-.96-3.65-2.17-4.97-3.62-1.32-1.45-2.28-3.04-2.89-4.77-.61-1.74-.92-3.34-.92-4.82s.31-3.18.92-4.92c.61-1.74,1.54-3.33,2.8-4.77,1.25-1.45,2.89-2.65,4.92-3.62,2.03-.96,4.42-1.45,7.19-1.45Z"/>
  <path class="st1" d="M651.95,923.21v-4.58c0-1.81.16-3.56.47-5.25.31-1.68.88-3.19,1.71-4.51.83-1.32,1.93-2.4,3.3-3.22,1.37-.83,3.12-1.27,5.25-1.32h10.41v-84.07c0-2.18.48-3.92,1.44-5.25.96-1.32,2.18-2.33,3.65-3.03,1.48-.7,3.11-1.17,4.9-1.4,1.79-.23,3.53-.38,5.24-.43h9.25v46.23c2.12-.62,4.28-1.17,6.49-1.63,2.2-.47,4.42-.88,6.64-1.24l42.19-6.45c.05,0,.17-.01.35-.04.18-.03.4-.04.66-.04.16.05.51.09,1.05.12.54.03.89.04,1.05.04,3.42.26,6.75.92,9.98,1.98,3.24,1.06,6.22,2.5,8.94,4.31,2.72,1.81,5.13,4.03,7.23,6.64,2.1,2.62,3.74,5.61,4.93,8.97.88,2.44,1.44,5.05,1.67,7.85.23,2.8.4,5.36.5,7.69h.08v1.4c0,2.38.24,4.69.74,6.92.49,2.23,1.35,4.18,2.56,5.87,1.22,1.68,2.86,3.03,4.93,4.04,2.07,1.01,4.71,1.52,7.93,1.52h56.88v18.88h-56.72c-2.64,0-5.1-.44-7.38-1.32-2.28-.88-4.32-2.07-6.14-3.57-1.81-1.5-3.43-3.27-4.86-5.32-1.43-2.05-2.6-4.24-3.54-6.57-1.45,2.38-3.22,4.62-5.32,6.72-2.1,2.1-4.62,3.98-7.58,5.63-1.45.83-3.1,1.53-4.93,2.1-1.84.57-3.73,1.04-5.67,1.4-1.94.36-3.87.61-5.79.74-1.92.13-3.7.19-5.36.19h-97.13ZM697.56,888.33v15.62h51.2c.72,0,1.46.01,2.21.04.75.03,1.46.01,2.14-.04,2.18-.26,3.95-.78,5.32-1.55,1.37-.78,2.65-1.94,3.85-3.5,1.55-2.02,2.62-4.26,3.19-6.72.57-2.46.86-4.93.86-7.42,0-1.86-.17-3.78-.5-5.75-.34-1.97-.92-3.82-1.75-5.56-.83-1.74-1.93-3.24-3.3-4.51-1.37-1.27-3.1-2.11-5.17-2.52-.1,0-.25-.01-.43-.04-.18-.03-.4-.07-.66-.12-.1-.05-.31-.08-.62-.08l-41.65,6.37c-4.51.73-8.06,2.46-10.64,5.21-1.24,1.35-2.23,3.02-2.95,5.01-.73,1.99-1.09,3.85-1.09,5.56Z"/>
  <path class="st1" d="M881.8,904.31c3.21,0,5.85-.51,7.93-1.52,2.07-1.01,3.7-2.37,4.89-4.08,1.19-1.71,2.03-3.66,2.53-5.87.49-2.2.74-4.49.74-6.88v-23.08c0-1.87.4-3.45,1.2-4.74.8-1.29,1.89-2.33,3.26-3.11,1.37-.78,2.95-1.35,4.74-1.71,1.79-.36,3.69-.54,5.71-.54h9.56v33.18c0,2.38.25,4.69.74,6.92.49,2.23,1.35,4.18,2.56,5.87,1.22,1.68,2.86,3.03,4.93,4.04,2.07,1.01,4.71,1.52,7.92,1.52h5.75v18.88h-5.59c-3.06,0-5.79-.35-8.2-1.05-2.41-.7-4.56-1.64-6.45-2.84-1.89-1.19-3.52-2.58-4.89-4.16-1.37-1.58-2.58-3.25-3.61-5.01-2.75,4.09-6.42,7.29-11.03,9.6-4.61,2.31-10.28,3.46-17.02,3.46h-26v-18.88h20.33Z"/>
  <path class="st1" d="M939.61,923.19v-18.88h2.41c3.21,0,5.84-.51,7.89-1.52,2.05-1.01,3.68-2.37,4.89-4.08,1.22-1.71,2.06-3.66,2.53-5.87.47-2.2.7-4.49.7-6.88v-23.08c0-2.18.48-3.91,1.44-5.21.96-1.29,2.19-2.29,3.69-2.99,1.5-.7,3.16-1.18,4.97-1.44,1.81-.26,3.55-.41,5.21-.47h9.17v33.18c0,2.07-.14,4.12-.43,6.14-.29,2.02-.69,4.04-1.2,6.06,1.19,1.66,2.67,2.98,4.43,3.96,1.76.98,3.81,1.48,6.14,1.48,2.12,0,3.95-.34,5.48-1.01,1.53-.67,2.78-1.59,3.77-2.76.98-1.17,1.7-2.51,2.14-4.04.44-1.53.66-3.15.66-4.86v-28.05c0-1.87.39-3.43,1.17-4.7.78-1.27,1.83-2.3,3.15-3.11,1.32-.8,2.89-1.39,4.7-1.75,1.81-.36,3.73-.54,5.75-.54h8.63v36.36c0,1.81.26,3.59.78,5.32.52,1.74,1.31,3.28,2.37,4.62,1.06,1.35,2.42,2.44,4.08,3.26,1.66.83,3.63,1.24,5.91,1.24s4.2-.38,5.75-1.13c1.55-.75,2.81-1.75,3.77-2.99.96-1.24,1.64-2.68,2.06-4.31.41-1.63.62-3.35.62-5.17v-27.12c0-1.87.4-3.45,1.2-4.74.8-1.29,1.89-2.33,3.26-3.11,1.37-.78,2.95-1.35,4.74-1.71,1.79-.36,3.69-.54,5.71-.54h8.93v36.52c0,.1.03.38.08.82.05.44.08.71.08.82.72,4.56,2.37,7.92,4.93,10.1,2.56,2.18,6.2,3.26,10.92,3.26h5.83v18.88h-5.67c-2.64,0-5.05-.27-7.23-.82-2.18-.54-4.16-1.29-5.94-2.25-1.79-.96-3.37-2.08-4.74-3.38-1.37-1.29-2.6-2.69-3.69-4.2-2.38,3.26-5.56,5.85-9.52,7.77-3.96,1.92-8.64,2.88-14.03,2.88-3,0-5.79-.34-8.35-1.01-2.56-.67-4.9-1.58-6.99-2.72-2.1-1.14-3.99-2.5-5.67-4.08-1.68-1.58-3.15-3.25-4.39-5.01-.93,1.81-2.09,3.5-3.46,5.05-1.37,1.55-3,2.91-4.9,4.08-1.89,1.17-4.05,2.07-6.49,2.72-2.44.65-5.18.97-8.24.97-2.8,0-5.39-.32-7.77-.97-2.38-.65-4.54-1.54-6.49-2.68-1.94-1.14-3.67-2.46-5.17-3.96-1.5-1.5-2.8-3.11-3.88-4.82-2.8,3.94-6.48,6.99-11.03,9.17-4.56,2.18-10.08,3.26-16.55,3.26h-8.08Z"/>
  <path class="st1" d="M1093.22,923.19v-18.88h20.75c-.57-1.55-.98-3.15-1.24-4.78-.26-1.63-.39-3.25-.39-4.86v-14.22c0-5.54.96-10.41,2.88-14.61,1.92-4.2,4.52-7.69,7.81-10.49,3.29-2.8,7.16-4.9,11.62-6.29,4.45-1.4,9.25-2.1,14.37-2.1,4.66,0,8.9.56,12.7,1.67,3.81,1.11,7.19,2.64,10.14,4.58,2.95,1.94,5.47,4.26,7.54,6.95,2.07,2.69,3.68,5.65,4.82,8.86.57,1.61,1.01,3.33,1.32,5.17.31,1.84.54,3.71.7,5.59.16,1.89.25,3.76.27,5.59.03,1.84.04,3.54.04,5.09,0,2.33-.15,4.65-.47,6.95-.31,2.31-.75,4.6-1.32,6.88h23.54v18.88h-115.08ZM1135.34,892.42c0,1.19.15,2.38.47,3.57.62,2.64,1.83,4.64,3.61,5.98,1.79,1.35,4.39,2.02,7.81,2.02h13.83c.88-1.81,1.52-3.7,1.9-5.67.39-1.97.58-3.96.58-5.98,0-1.5-.04-3.24-.12-5.21-.08-1.97-.25-3.96-.5-5.98-.26-2.02-.64-3.94-1.13-5.75-.49-1.81-1.15-3.29-1.98-4.43-1.19-1.61-2.59-2.81-4.2-3.61-1.61-.8-3.6-1.2-5.98-1.2-2.54,0-4.7.44-6.49,1.32s-3.26,2.09-4.43,3.61c-1.17,1.53-2.02,3.32-2.56,5.36-.54,2.05-.82,4.23-.82,6.57v9.4Z"/>
  <path class="st1" d="M1203.63,904.31h5.91c3.21,0,5.85-.51,7.93-1.52,2.07-1.01,3.7-2.37,4.89-4.08,1.19-1.71,2.03-3.66,2.53-5.87.49-2.2.74-4.49.74-6.88v-23.08c0-1.87.4-3.45,1.2-4.74.8-1.29,1.89-2.33,3.26-3.11s2.95-1.35,4.74-1.71c1.79-.36,3.69-.54,5.71-.54h9.56v33.18c0,2.38.25,4.69.74,6.92.49,2.23,1.35,4.18,2.56,5.87,1.22,1.68,2.86,3.03,4.93,4.04,2.07,1.01,4.71,1.52,7.92,1.52h5.75v18.88h-5.59c-3.06,0-5.79-.35-8.2-1.05-2.41-.7-4.56-1.64-6.45-2.84-1.89-1.19-3.52-2.58-4.89-4.16-1.37-1.58-2.58-3.25-3.61-5.01-2.75,4.09-6.42,7.29-11.03,9.6-4.61,2.31-10.28,3.46-17.02,3.46h-11.58v-18.88Z"/>
  <path class="st1" d="M1271.28,923.19v-18.88h5.91c3.16,0,5.76-.49,7.81-1.48,2.05-.98,3.68-2.3,4.9-3.96,1.22-1.66,2.07-3.57,2.56-5.75.49-2.18.74-4.45.74-6.84v-66.05c0-1.87.4-3.45,1.2-4.74.8-1.29,1.89-2.34,3.26-3.15,1.37-.8,2.95-1.37,4.74-1.71,1.79-.34,3.69-.5,5.71-.5h9.56v75.84c0,2.38.25,4.68.74,6.88.49,2.2,1.36,4.16,2.6,5.87,1.24,1.71,2.91,3.07,5.01,4.08,2.1,1.01,4.73,1.52,7.89,1.52h5.75v18.88h-5.59c-3.06,0-5.79-.35-8.2-1.05-2.41-.7-4.56-1.64-6.45-2.84-1.89-1.19-3.52-2.58-4.9-4.16-1.37-1.58-2.58-3.25-3.61-5.01-2.75,4.09-6.42,7.29-11.03,9.6-4.61,2.31-10.28,3.46-17.02,3.46h-11.58Z"/>
  <path class="st1" d="M1328.44,904.31h2.41c3.26,0,5.96-.49,8.08-1.48,2.12-.98,3.81-2.32,5.05-4,1.24-1.68,2.1-3.64,2.56-5.87.47-2.23.7-4.56.7-6.99v-65.73c0-1.87.4-3.45,1.2-4.74.8-1.29,1.89-2.34,3.26-3.15,1.37-.8,2.97-1.37,4.78-1.71,1.81-.34,3.73-.5,5.75-.5h9.48v75.84c0,3.37-.36,6.74-1.09,10.1-.73,3.37-1.84,6.66-3.34,9.87-2.49,5.28-6.22,9.48-11.19,12.59-4.97,3.11-11.37,4.66-19.19,4.66h-8.47v-18.88Z"/>
  <text class="st0" transform="translate(0 1142.32)"><tspan x="0" y="0">...</tspan><tspan x="104.9" y="0">تسهلك حياتك</tspan></text>
</svg>