<?xml version="1.0" encoding="UTF-8"?>
<svg id="Calque_1" xmlns="http://www.w3.org/2000/svg" version="1.1" viewBox="0 0 565.39 179.31">
  <!-- Generator: Adobe Illustrator 29.8.1, SVG Export Plug-In . SVG Version: 2.1.1 Build 2)  -->
  <defs>
    <style>
      .st0 {
        fill: #fff;
      }

      .st1 {
        fill: none;
        stroke: #fff;
        stroke-width: .5px;
      }
    </style>
  </defs>
  <path class="st1" d="M217.58,115.18"/>
  <g>
    <path class="st0" d="M558.97,33.29c3.59,0,6.43,2.79,6.43,6.35s-2.84,6.42-6.47,6.42-6.5-2.79-6.5-6.42,2.87-6.35,6.5-6.35h.04ZM558.89,34.4c-2.87,0-5.06,2.35-5.06,5.23s2.19,5.27,5.14,5.27c2.87.04,4.99-2.32,4.99-5.23s-2.12-5.27-5.03-5.27h-.04ZM557.77,43.15h-1.24v-6.66c.68-.12,1.4-.2,2.31-.2,1.12,0,1.67.2,2.12.52.4.28.68.8.68,1.4,0,.84-.6,1.36-1.32,1.6v.08c.6.24.91.76,1.11,1.6.2,1.04.32,1.44.48,1.68h-1.28c-.2-.24-.36-.84-.52-1.76-.16-.72-.6-1.03-1.56-1.03h-.8v2.79ZM557.77,39.39h.84c.92,0,1.72-.28,1.72-1.08,0-.64-.4-1.07-1.6-1.07-.48,0-.76.04-.96.08v2.07Z"/>
    <path class="st0" d="M266.67,104.14c0,9.83-5.42,18.76-14.13,23.29-20.26,10.55-49.66,10.55-69.91,0-8.73-4.54-14.14-13.47-14.14-23.29v-23.36c0-9.83,5.42-18.76,14.13-23.3h0c20.26-10.55,49.66-10.55,69.92,0,8.72,4.54,14.13,13.47,14.13,23.3v23.36h0ZM187.09,80.78v23.36c0,2.91,1.54,5.46,4.12,6.8,14.79,7.7,37.95,7.7,52.72,0,2.59-1.34,4.13-3.88,4.13-6.8v-23.36c0-2.91-1.54-5.45-4.13-6.8-14.78-7.7-37.94-7.7-52.72,0-2.59,1.34-4.13,3.89-4.13,6.8Z"/>
    <path class="st0" d="M298.71,73.99c14.78-7.7,37.95-7.7,52.73,0,2.59,1.34,4.13,3.89,4.13,6.8v23.36c0,2.91-1.54,5.46-4.13,6.8-14.79,7.7-37.95,7.7-52.73,0-2.58-1.34-4.13-3.88-4.13-6.8v-23.36c0-2.91,1.54-5.45,4.13-6.8ZM275.98,104.14c0,9.83,5.42,18.76,14.14,23.29,20.26,10.55,49.66,10.55,69.92,0,8.72-4.54,14.13-13.47,14.13-23.29v-23.36c0-9.83-5.42-18.76-14.13-23.3-18.82-9.81-45.51-10.49-65.46-2.08v-20.95c0-.32-.12-.61-.34-.82-.21-.21-.5-.34-.82-.34-.16,0-.31.03-.45.09l-15.57,7.78c-.28.12-.52.29-.74.5-.42.43-.68,1-.68,1.64v60.84h0Z"/>
    <path class="st0" d="M457.89,43.65c0,1.86-1.02,3.55-2.68,4.41-3.84,2-9.41,2-13.25,0-1.65-.86-2.68-2.55-2.68-4.41v-4.45c0-1.86,1.03-3.56,2.68-4.41h0c3.84-2,9.41-2,13.25,0,1.65.86,2.68,2.55,2.68,4.41v4.45Z"/>
    <path class="st0" d="M402.08,43.65c0,1.86-1.02,3.55-2.68,4.41-3.83,2-9.41,2-13.25,0-1.65-.86-2.68-2.55-2.68-4.41v-4.45c0-1.86,1.02-3.56,2.68-4.41h0c3.85-2,9.42-2,13.25,0,1.65.86,2.68,2.55,2.68,4.41v4.45Z"/>
    <path class="st0" d="M429.98,129.54c0,.64-.52,1.16-1.16,1.16h-16.28c-.64,0-1.16-.52-1.16-1.16V43.33c0-.64.27-1.22.68-1.65.21-.21.46-.38.74-.5l15.57-7.78c.14-.06.29-.09.45-.09.32,0,.61.13.82.34.21.21.34.5.34.82v95.06h0Z"/>
    <path class="st0" d="M439.29,64.23c0-.64.26-1.22.68-1.64.21-.21.46-.38.74-.5l15.57-7.78c.14-.06.29-.09.45-.09.32,0,.61.13.82.34.21.21.34.51.34.83v74.16c0,.64-.52,1.16-1.16,1.16h-16.28c-.64,0-1.16-.52-1.16-1.16v-65.31h0Z"/>
    <path class="st0" d="M402.08,64.23c0-.64-.26-1.22-.68-1.64-.21-.21-.46-.38-.74-.5l-15.57-7.78c-.14-.06-.29-.09-.45-.09-.32,0-.61.13-.83.34-.21.21-.34.51-.34.83v74.16c0,.64.52,1.16,1.16,1.16h16.28c.64,0,1.16-.52,1.16-1.16v-65.31Z"/>
    <path class="st0" d="M18.61,80.78c0-2.91,1.54-5.45,4.13-6.8,13.15-6.86,32.94-7.59,47.56-2.25v57.81c0,.64.52,1.16,1.16,1.16h16.28c.64,0,1.16-.52,1.16-1.16v-57.81c14.61-5.35,34.4-4.61,47.55,2.25,2.59,1.34,4.13,3.89,4.13,6.8v48.76c0,.64.52,1.16,1.16,1.16h16.28c.64,0,1.16-.52,1.16-1.16v-48.76c0-9.83-5.42-18.76-14.13-23.3-18.82-9.81-45.52-10.49-65.45-2.08-19.95-8.41-46.64-7.72-65.46,2.08h0C5.42,62.02,0,70.95,0,80.78v48.76c0,.64.53,1.16,1.17,1.16h16.28c.65,0,1.16-.52,1.16-1.16v-48.76h0Z"/>
    <path class="st0" d="M467.2,80.78c0-9.83,5.42-18.76,14.13-23.3h0c20.26-10.55,49.67-10.55,69.93,0,6.61,3.44,11.31,9.4,13.21,16.37h-22.07c-14.8-7.57-37.77-7.53-52.47.13-2.59,1.34-4.12,3.89-4.12,6.8v2.38h78.43c.64,0,1.16.52,1.16,1.16v19.82c0,9.83-5.42,18.76-14.14,23.29-20.26,10.55-49.66,10.55-69.92,0-6.61-3.44-11.32-9.4-13.22-16.38h22.06c14.79,7.57,37.77,7.53,52.47-.12,2.59-1.34,4.13-3.88,4.13-6.8v-2.38h-78.42c-.64,0-1.16-.52-1.16-1.16v-19.82Z"/>
  </g>
  <g>
    <path class="st0" d="M470.57,147.28c0,.58.47.87,1.42.87.63,0,1.63-.31,3.02-.91l-.41,1.92c-1.63.35-3.31,1.16-5.03,2.43.14-1.15.67-1.92,1.6-2.34-.47-.06-.94-.12-1.42-.16-.52-.15-.78-.47-.78-.94,0-.82.37-1.64,1.1-2.45s1.5-1.21,2.31-1.21c.75,0,1.12.18,1.12.53v1.12c-1.95-.17-2.93.21-2.93,1.14ZM471.49,163.37c-.47-3.08-.94-6.16-1.42-9.25l2.15-2.61c.47,2.91.95,5.83,1.42,8.74.55,3.51.82,6.44.82,8.79,0,.56-.15,1.17-.43,1.81-.29.56-.58,1.13-.87,1.69-.53-2.43-1.09-5.49-1.67-9.18Z"/>
    <path class="st0" d="M466.79,161.31c.63,1.48.94,2.99.94,4.53,0,.99-.18,1.92-.55,2.79l-10.89-.02c-.31-.21-.46-.73-.46-1.56s.15-1.41.46-1.67l9.47.05c-.02-.87-.35-1.74-1.01-2.61-.82-1.11-1.31-1.87-1.46-2.27l2.01-3.3c.15.72.65,2.07,1.49,4.05ZM461.67,173.56l-2.01,2.29-2.82-2.29,2.02-2.29,2.81,2.29ZM467.05,173.77l-2.01,2.26-2.81-2.26,2.01-2.29,2.81,2.29Z"/>
    <path class="st0" d="M455.9,161.31c.62,1.48.94,2.99.94,4.53,0,.99-.18,1.92-.55,2.79l-10.9-.02c-.3-.21-.46-.73-.46-1.56s.15-1.41.46-1.67l9.48.05c-.02-.87-.35-1.74-1.01-2.61-.82-1.11-1.31-1.87-1.46-2.27l2.01-3.3c.15.72.65,2.07,1.49,4.05ZM453.41,149.46l-2.02,2.29-2.84-2.29,2.04-2.29,2.82,2.29Z"/>
    <path class="st0" d="M432.14,167.06c0-1.08.17-1.64.5-1.67,1.69-.17,2.85-.39,3.48-.66.98-.44,1.76-1.3,2.36-2.59l.44.16c1.11-2.26,2.14-3.39,3.09-3.39,1.1,0,2.05.8,2.86,2.4.7,1.37,1.05,2.68,1.05,3.91,0,.59-.18,1.3-.55,2.13-.3.66-.62,1.32-.94,1.99-1.15-.24-2.34-.71-3.57-1.4-1.39-.78-2.35-1.58-2.89-2.4-.55,2.04-2.34,3.07-5.38,3.07-.3,0-.46-.52-.46-1.56ZM443.93,165.82c0-.78-.31-1.61-.94-2.49-.67-.98-1.37-1.47-2.1-1.47-.52,0-1.01.34-1.47,1.01,1.57,1.51,3.07,2.49,4.51,2.95Z"/>
    <path class="st0" d="M430.45,168.62c-.55-2.56-1.11-5.55-1.69-8.97-.15-.9-.64-3.91-1.46-9.04l2.15-2.61c.47,2.9.94,5.8,1.42,8.7.57,3.51.85,6.41.85,8.7h2.31v3.23h-3.57Z"/>
    <path class="st0" d="M404.85,167.06c0-.85.17-1.4.53-1.62h10.8c-.41-1.56-2.88-3.82-7.39-6.77l-.18,1.12c-.67-.6-1.34-1.19-2.02-1.79-.62-.65-.94-1.43-.94-2.31,0-1.82,1.62-3.72,4.88-5.7,2.24-1.37,4.74-2.53,7.48-3.48l-.6,3.36c-1.44.32-3.13.97-5.08,1.95-1.91.93-3.46,1.87-4.67,2.82,2.41,1.4,4.51,2.93,6.3,4.58,2.53,2.33,3.8,4.43,3.8,6.27v3.16h-12.38c-.35-.25-.52-.78-.52-1.58Z"/>
    <path class="st0" d="M404.92,161.31c.62,1.48.94,2.99.94,4.53,0,.99-.18,1.92-.55,2.79l-10.9-.02c-.3-.21-.45-.73-.45-1.56s.15-1.41.45-1.67l9.48.05c-.02-.87-.35-1.74-1.01-2.61-.82-1.11-1.31-1.87-1.46-2.27l2.02-3.3c.15.72.65,2.07,1.49,4.05ZM402.42,149.46l-2.02,2.29-2.84-2.29,2.04-2.29,2.82,2.29Z"/>
    <path class="st0" d="M394.02,161.31c.62,1.48.94,2.99.94,4.53,0,.99-.18,1.92-.55,2.79l-10.9-.02c-.3-.21-.46-.73-.46-1.56s.15-1.41.46-1.67l9.48.05c-.02-.87-.35-1.74-1.01-2.61-.82-1.11-1.31-1.87-1.47-2.27l2.02-3.3c.15.72.65,2.07,1.49,4.05ZM389.1,153.1l-2.02,2.29-2.82-2.29,2.02-2.29,2.81,2.29ZM394.48,153.3l-2.01,2.27-2.82-2.27,2.01-2.29,2.81,2.29Z"/>
    <path class="st0" d="M368.34,167.7c.69-.67,2.19-1.53,4.51-2.59,1.91-.85,3.12-1.85,3.64-2.98l.43.16c1.1-2.26,2.13-3.39,3.09-3.39,1.1,0,2.06.8,2.88,2.4.69,1.37,1.03,2.68,1.03,3.91,0,.55-.18,1.25-.55,2.1-.32.67-.63,1.34-.94,2.01-1.14-.26-2.33-.73-3.57-1.4-1.39-.76-2.35-1.56-2.88-2.4-.29,1.1-1.2,1.98-2.72,2.63-1.31.54-2.63,1.06-3.94,1.58-1.33.76-1.99,1.85-1.99,3.25,0,1.6.82,3.01,2.47,4.23,1.33.96,2.9,1.65,4.71,2.06h-.57c-5.22.06-7.83-1.71-7.83-5.33,0-2.78.74-4.87,2.22-6.27ZM381.94,165.82c0-.78-.31-1.61-.94-2.49-.67-.98-1.37-1.47-2.1-1.47-.52,0-1.01.34-1.46,1.01,1.57,1.51,3.08,2.49,4.51,2.95Z"/>
  </g>
  <g>
    <path class="st0" d="M161.32,31.86c0,.45-.25.86-.65,1.07-.93.48-2.27.48-3.21,0-.4-.21-.65-.62-.65-1.07v-1.08c0-.45.25-.86.65-1.07h0c.93-.48,2.28-.48,3.21,0,.4.21.65.62.65,1.07v1.08Z"/>
    <path class="st0" d="M143.2,31.86c0,.45-.25.86-.65,1.07-.93.48-2.27.48-3.21,0-.4-.21-.65-.62-.65-1.07v-1.08c0-.45.25-.86.65-1.07h0c.93-.48,2.28-.48,3.21,0,.4.21.65.62.65,1.07v1.08Z"/>
    <path class="st0" d="M149.95,31.86c0,.45-.25.86-.65,1.07-.93.48-2.27.48-3.21,0-.4-.21-.65-.62-.65-1.07v-1.08c0-.45.25-.86.65-1.07h0c.93-.48,2.28-.48,3.21,0,.4.21.65.62.65,1.07v1.08Z"/>
    <path class="st0" d="M113.71,31.86c0,.45-.25.86-.65,1.07-.93.48-2.27.48-3.21,0-.4-.21-.65-.62-.65-1.07v-1.08c0-.45.25-.86.65-1.07h0c.93-.48,2.28-.48,3.21,0,.4.21.65.62.65,1.07v1.08Z"/>
    <path class="st0" d="M120.46,31.86c0,.45-.25.86-.65,1.07-.93.48-2.27.48-3.21,0-.4-.21-.65-.62-.65-1.07v-1.08c0-.45.25-.86.65-1.07h0c.93-.48,2.28-.48,3.21,0,.4.21.65.62.65,1.07v1.08Z"/>
    <path class="st0" d="M189.57,24.63c2.38.47,5.04.18,7.05-.87.38-.2.71-.46.98-.76,4.89,2.49,11.92,2.47,16.77-.06,2.11-1.1,3.42-3.26,3.42-5.63v-5.65c0-2.38-1.31-4.54-3.42-5.63-4.55-2.37-11.01-2.54-15.83-.5v-1.13c0-.08-.03-.15-.08-.2-.05-.05-.12-.08-.2-.08-.04,0-.08,0-.11.02l-3.76,1.88c-.07.03-.13.07-.18.12-.1.1-.17.24-.17.4v12.9c0,.21-.1.4-.3.5-1.09.57-2.8.57-3.89,0-.19-.1-.3-.29-.3-.5v-7.77c0-2.38-1.31-4.54-3.42-5.63-4.9-2.55-12.01-2.55-16.9,0-2.11,1.1-3.42,3.26-3.42,5.63v5.65c0,2.38,1.31,4.54,3.42,5.63h0c4.55,2.37,11,2.53,15.83.5v2.3c0,.71-.37,1.32-1,1.64-3.55,1.85-9.11,1.86-12.69.03h-5.34c.46,1.69,1.6,3.13,3.2,3.96,4.9,2.55,12.01,2.55,16.9,0,2.11-1.1,3.42-3.26,3.42-5.63v-1.11h0ZM185.07,17.3c0,.71-.37,1.32-1,1.64-3.57,1.86-9.17,1.86-12.75,0-.63-.33-1-.94-1-1.64v-5.65c0-.71.37-1.32,1-1.64,3.57-1.86,9.18-1.86,12.75,0,.62.33,1,.94,1,1.64v5.65ZM213.3,17.3c0,.71-.37,1.32-1,1.64-3.58,1.86-9.18,1.86-12.75,0-.62-.33-1-.94-1-1.64v-5.65c0-.7.37-1.32,1-1.64,3.58-1.86,9.18-1.86,12.75,0,.62.33,1,.94,1,1.64v5.65Z"/>
    <path class="st0" d="M161.04,5.06h-3.94c-.15,0-.28.13-.28.28v12.9c0,.49-.26.92-.7,1.14-2.48,1.29-6.38,1.29-8.86,0-.43-.22-.69-.65-.69-1.14V5.34c0-.15-.13-.28-.29-.28h-3.94c-.15,0-.28.13-.28.28v12.9c0,.49-.25.92-.69,1.14-2.48,1.29-6.38,1.29-8.86,0-.43-.22-.69-.65-.69-1.14l-.02-17.96c0-.08-.03-.15-.08-.2-.05-.05-.12-.08-.2-.08-.04,0-.08,0-.11.02l-3.77,1.88c-.07.03-.13.07-.18.12-.1.1-.16.24-.16.4l.02,15.82c0,.49-.26.92-.69,1.14-2.48,1.29-6.38,1.29-8.86,0-.43-.22-.69-.65-.69-1.14V5.34c0-.15-.13-.28-.28-.28h-3.94c-.16,0-.28.13-.28.28v12.9c0,.49-.26.92-.69,1.14-2.48,1.29-6.38,1.29-8.86,0-.38-.2-.63-.55-.68-.97V5.34c-.01-.15-.13-.28-.29-.28h-3.94c-.15,0-.28.13-.28.28v12.9c0,.49-.26.92-.69,1.14-2.48,1.29-6.38,1.29-8.86,0-.43-.22-.69-.65-.69-1.14V5.34c0-.15-.13-.28-.29-.28h-3.94c-.15,0-.28.13-.28.28v12.9c0,.49-.25.92-.69,1.14-2.48,1.29-6.38,1.29-8.86,0-.43-.22-.69-.65-.69-1.14l-.02-12.9c0-.15-.12-.28-.28-.28h-3.94c-.15,0-.28.13-.28.28l.02,20.4c0,.71-.37,1.32-1,1.64-3.57,1.86-9.17,1.86-12.75,0h-5.28c.45,1.7,1.6,3.15,3.21,3.99,4.9,2.55,12.01,2.55,16.9,0,2.11-1.1,3.42-3.26,3.42-5.63v-1.71c3.8,1.29,8.55,1.05,11.98-.73.18-.1.35-.21.51-.32.17.12.34.22.53.32h0c3.97,2.07,9.73,2.07,13.7,0,.18-.1.35-.2.52-.32.17.11.34.22.52.32h0c3.97,2.07,9.73,2.07,13.71,0,.18-.1.35-.2.52-.32.17.11.34.22.52.32h0c3.97,2.07,9.73,2.07,13.71,0,.18-.1.35-.2.52-.32.17.11.34.22.52.32h0c3.97,2.07,9.73,2.07,13.7,0,.18-.1.35-.21.52-.32.17.12.34.22.53.32h0c3.97,2.07,9.73,2.07,13.71,0,1.71-.89,2.77-2.64,2.77-4.57V5.34c0-.15-.13-.28-.29-.28Z"/>
  </g>
</svg>