<?xml version="1.0" encoding="UTF-8"?>
<svg id="Calque_1" xmlns="http://www.w3.org/2000/svg" xmlns:xlink="http://www.w3.org/1999/xlink" version="1.1" viewBox="0 0 600 800">
  <!-- Generator: Adobe Illustrator 29.6.1, SVG Export Plug-In . SVG Version: 2.1.1 Build 9)  -->
  <defs>
    <style>
      .st0 {
        fill: none;
      }

      .st1 {
        fill: url(#New_Pattern);
        opacity: .13;
      }

      .st2 {
        fill: #62e2ef;
      }
    </style>
    <pattern id="New_Pattern" data-name="New Pattern" x="0" y="0" width="195" height="195" patternTransform="translate(44 -12653) scale(1 -1)" patternUnits="userSpaceOnUse" viewBox="0 0 195 195">
      <g>
        <rect class="st0" width="195" height="195"/>
        <g>
          <rect class="st0" width="195" height="195"/>
          <path class="st2" d="M0,11.85h0v36.51h0l14.16-14.16h12.81v10.81h-8.33L0,63.65h0v10.21h0l6.92,6.92h9.79v9.79l6.92,6.92h0l-6.92,6.92v9.79H6.92l-6.92,6.94h0v10.21h0l18.64,18.64h8.33v10.81h-12.81l-14.16-14.16h0v36.51h0l11.85,11.85h36.51l-14.16-14.16v-12.81h10.81v8.33l18.64,18.64h10.21l6.92-6.92v-9.79h9.79l6.92-6.92,6.92,6.92h9.79v9.79l6.92,6.92h10.21l18.64-18.64v-8.33h10.81v12.81l-14.14,14.16h36.51l11.85-11.85v-36.51h0l-14.16,14.16h-12.81v-10.81h8.33l18.64-18.64v-10.21h0l-6.92-6.92h-9.79v-9.79l-6.92-6.92h0l6.92-6.92v-9.79h9.79l6.92-6.92v-10.21l-18.64-18.64h-8.33v-10.81h12.81l14.16,14.14V11.85l-11.85-11.85h-36.51l14.16,14.16v12.81h-10.81v-8.33L131.35,0h-10.21l-6.92,6.92v9.79h-9.79l-6.92,6.92-6.92-6.92h-9.79V6.92l-6.94-6.92h-10.21l-18.64,18.64v8.33h-10.82v-12.81L48.36,0H11.85L0,11.85h0ZM45.01,45.01h-10.55v-10.55h10.55v10.55ZM45.27,63.04h-10.81v-10.81h10.81v10.81ZM92.39,28.74l-16.52,16.53h-5.34v-18.04h-.26v-.26h-18.04v-5.34l16.53-16.52,4.81,4.81v14.02h14.02l4.8,4.8ZM52.49,124.47v-8.33l-18.64-18.64,18.64-18.64v-8.33h10.81v12.81l-14.16,14.16,14.16,14.16v12.81h-10.81ZM63.04,131.96v10.55h-10.55v-10.55h10.55ZM124.47,124.47h-15.8l-7.56,7.56v-16.09l14.84-14.84h16.09l-7.56,7.56v15.81h0ZM131.96,142.51v-10.55h10.55v10.55h-10.55ZM142.77,149.73v10.81h-10.81v-10.81h10.81ZM131.69,124.47v-12.81l14.16-14.16-14.16-14.16v-12.81h10.81v8.33l18.64,18.64-18.64,18.64v8.33h-10.81ZM131.96,63.04v-10.55h10.55v10.55h-10.55ZM132.03,93.89h-16.09l-14.84-14.84v-16.09l7.56,7.56h15.8v15.8l7.57,7.57ZM97.5,109.35l-11.85-11.85,11.85-11.85,11.85,11.85-11.85,11.85ZM70.53,70.53h15.8l7.56-7.56v16.09l-14.84,14.83h-16.08l7.56-7.56v-15.8h0ZM93.89,132.03l-7.56-7.56h-15.8v-15.8l-7.56-7.56h16.09l14.84,14.84v16.08h0ZM63.04,52.49v10.55h-10.55v-10.55h10.55ZM52.23,45.27v-10.81h10.81v10.81h-10.81ZM116.14,52.49h8.33v10.81h-12.81l-14.16-14.16-14.16,14.17h-12.81v-10.81h8.33l18.64-18.65,18.64,18.64ZM142.77,26.97h-18.04v.26h-.26v18.04h-5.34l-16.53-16.53,4.81-4.81h14.02v-14.02l4.81-4.81,16.53,16.53v5.34ZM142.77,45.27h-10.81v-10.81h10.81v10.81ZM160.54,45.01h-10.55v-10.55h10.55v10.55ZM160.54,63.04h-10.81v-10.81h10.81v10.81ZM168.03,26.97h0v-15.8l-7.56-7.56h16.09l14.84,14.84v16.09l-7.56-7.56h-15.81ZM171.06,73.56v14.02l-4.81,4.81-16.53-16.53v-5.34h18.04v-.26h.26v-18.04h5.34l16.53,16.53-4.81,4.81h-14.02ZM168.03,183.83v-15.8h15.8l7.56-7.56v16.09l-14.84,14.84h-16.09l7.57-7.57ZM149.99,149.99h10.55v10.55h-10.55v-10.55ZM149.73,131.96h10.81v10.81h-10.81v-10.81ZM149.73,119.13l16.53-16.53,4.81,4.81v14.02h14.02l4.81,4.81-16.53,16.53h-5.34v-18.04h-.26v-.26h-18.04v-5.34h0ZM102.61,166.26l16.53-16.53h5.34v18.04h.26v.26h18.04v5.34l-16.53,16.53-4.81-4.81v-14.02h-14.02l-4.81-4.81ZM97.5,161.15l-18.64-18.64h-8.33v-10.81h12.81l14.16,14.16,14.16-14.16h12.81v10.81h-8.33l-18.64,18.64h0ZM52.23,168.03h18.04v-.26h.26v-18.04h5.34l16.53,16.53-4.81,4.81h-14.03v14.02l-4.81,4.81-16.53-16.53v-5.34h0ZM52.23,149.73h10.81v10.81h-10.81v-10.81ZM34.46,149.99h10.55v10.55h-10.55v-10.55ZM34.46,131.96h10.81v10.81h-10.81v-10.81ZM26.97,168.03h0v15.8l7.56,7.56h-16.08l-14.84-14.84v-16.09l7.56,7.56h15.8ZM23.94,121.44v-14.02l4.81-4.81,16.53,16.53v5.34h-18.04v.26h-.26v18.04h-5.34l-16.53-16.54,4.81-4.81h14.02ZM26.97,52.23v18.04h.26v.26h18.04v5.34l-16.53,16.52-4.81-4.81v-14.02h-14.02l-4.81-4.81,16.53-16.53h5.34ZM3.61,18.45L18.45,3.61h16.09l-7.56,7.56v15.8h-15.8l-7.56,7.56v-16.08h-.01Z"/>
        </g>
      </g>
    </pattern>
  </defs>
  <rect class="st1" x="0" width="600" height="800"/>
</svg>