<?xml version="1.0" encoding="UTF-8"?>
<svg id="Calque_1" xmlns="http://www.w3.org/2000/svg" xmlns:xlink="http://www.w3.org/1999/xlink" version="1.1" viewBox="0 0 131 39">
  <!-- Generator: Adobe Illustrator 29.6.1, SVG Export Plug-In . SVG Version: 2.1.1 Build 9)  -->
  <defs>
    <style>
      .st0 {
        clip-rule: evenodd;
      }

      .st0, .st1, .st2 {
        fill: #fff;
      }

      .st1 {
        fill-rule: evenodd;
      }

      .st3 {
        clip-path: url(#clippath-1);
      }

      .st4 {
        clip-path: url(#clippath);
      }
    </style>
    <clipPath id="clippath">
      <path class="st0" d="M37.33,6.75c6.32,0,11.44,5.12,11.44,11.44s-5.12,11.44-11.44,11.44-11.44-5.12-11.44-11.44,5.12-11.44,11.44-11.44M37.33,1.37c9.29,0,16.82,7.53,16.82,16.82s-7.53,16.82-16.82,16.82-16.82-7.53-16.82-16.82S28.04,1.37,37.33,1.37Z"/>
    </clipPath>
    <clipPath id="clippath-1">
      <path class="st0" d="M37.33,18.19c9.29,0,16.82,7.53,16.82,16.82h-5.38c0-6.32-5.12-11.44-11.44-11.44v-5.38Z"/>
    </clipPath>
  </defs>
  <g>
    <g>
      <path class="st2" d="M57.01,14.84c-.52-.52-.79-1.17-.79-1.94s.26-1.38.79-1.91,1.17-.79,1.94-.79,1.38.26,1.91.79.79,1.16.79,1.91-.26,1.42-.79,1.94-1.16.79-1.91.79-1.42-.26-1.94-.79ZM56.67,17.48h4.55v17.5h-4.55v-17.5Z"/>
      <path class="st2" d="M62.69,17.48h4.76l3.99,11.51,4.02-11.51h4.76l-6.51,17.5h-4.55l-6.47-17.5Z"/>
      <path class="st2" d="M93.61,18.41c1.39.8,2.48,1.9,3.29,3.29.81,1.39,1.21,2.9,1.21,4.53s-.4,3.14-1.21,4.53c-.8,1.39-1.9,2.48-3.29,3.29-1.39.81-2.9,1.21-4.53,1.21s-3.14-.4-4.53-1.21c-1.39-.8-2.49-1.9-3.29-3.29-.8-1.39-1.21-2.9-1.21-4.53s.4-3.14,1.21-4.53,1.9-2.48,3.29-3.29c1.39-.81,2.9-1.21,4.53-1.21s3.14.4,4.53,1.21ZM85.89,22.96c-.86.87-1.29,1.96-1.29,3.27s.43,2.4,1.29,3.27,1.94,1.31,3.22,1.31,2.34-.44,3.18-1.31,1.26-1.96,1.26-3.27-.42-2.4-1.26-3.27c-.84-.88-1.9-1.31-3.18-1.31s-2.36.44-3.22,1.31Z"/>
    </g>
    <g>
      <path class="st2" d="M94.48,11.86c.23-.4.55-.72.94-.95s.83-.35,1.3-.35.91.12,1.3.35.71.55.95.95c.24.4.35.84.35,1.31s-.12.91-.35,1.31c-.24.4-.55.72-.95.95s-.83.35-1.3.35-.92-.13-1.27-.38v2.32h-1.32v-4.55c0-.47.12-.91.35-1.31ZM97.65,14.11c.24-.25.36-.57.36-.94s-.12-.69-.36-.94c-.24-.25-.55-.38-.92-.38s-.68.13-.93.38-.37.57-.37.94.12.69.37.94c.25.25.56.38.93.38s.68-.13.92-.38Z"/>
      <path class="st2" d="M101.14,15.43c-.4-.23-.71-.55-.95-.95-.24-.4-.35-.84-.35-1.31s.12-.91.35-1.31c.24-.4.55-.72.95-.95s.83-.35,1.3-.35.91.12,1.3.35.71.55.95.95.35.84.35,1.31v2.53h-1.31v-.54c-.07.17-.24.31-.49.43s-.52.18-.8.18c-.47,0-.91-.12-1.3-.35ZM103.37,14.11c.24-.25.36-.57.36-.94s-.12-.69-.36-.94c-.24-.25-.55-.38-.92-.38s-.68.13-.93.38-.37.57-.37.94.12.69.37.94c.25.25.56.38.93.38s.68-.13.92-.38Z"/>
      <path class="st2" d="M106.62,17.27c-.38-.3-.66-.7-.84-1.2h1.46c.1.12.2.21.31.27s.24.09.42.09c.3,0,.53-.07.68-.22.15-.15.22-.34.22-.59v-.03c-.29.12-.59.18-.9.18-.67,0-1.21-.21-1.62-.62s-.61-1.03-.61-1.85v-2.66h1.31v2.66c0,.41.07.71.22.9.14.19.38.29.69.29s.55-.1.69-.29.22-.49.22-.9v-2.66h1.31v4.8c0,.42-.1.81-.29,1.16-.19.35-.46.62-.79.82-.34.2-.72.3-1.14.3-.52,0-.97-.15-1.35-.44Z"/>
    </g>
  </g>
  <g>
    <g>
      <path class="st1" d="M37.33,6.75c6.32,0,11.44,5.12,11.44,11.44s-5.12,11.44-11.44,11.44-11.44-5.12-11.44-11.44,5.12-11.44,11.44-11.44M37.33,1.37c9.29,0,16.82,7.53,16.82,16.82s-7.53,16.82-16.82,16.82-16.82-7.53-16.82-16.82S28.04,1.37,37.33,1.37Z"/>
      <g class="st4">
        <rect class="st2" x="20.5" y="1.37" width="33.64" height="33.64"/>
      </g>
    </g>
    <g>
      <path class="st1" d="M37.33,18.19c9.29,0,16.82,7.53,16.82,16.82h-5.38c0-6.32-5.12-11.44-11.44-11.44v-5.38Z"/>
      <g class="st3">
        <rect class="st2" x="37.33" y="18.19" width="16.82" height="16.82"/>
      </g>
    </g>
  </g>
</svg>