<?xml version="1.0" encoding="UTF-8"?>
<svg id="Calque_1" xmlns="http://www.w3.org/2000/svg" xmlns:xlink="http://www.w3.org/1999/xlink" version="1.1" viewBox="0 0 31.98 31.98">
  <!-- Generator: Adobe Illustrator 29.6.1, SVG Export Plug-In . SVG Version: 2.1.1 Build 9)  -->
  <defs>
    <style>
      .st0, .st1 {
        fill-rule: evenodd;
      }

      .st0, .st2, .st3 {
        fill: #3c0366;
      }

      .st4 {
        clip-path: url(#clippath-1);
      }

      .st1 {
        fill: none;
      }

      .st1, .st2, .st3 {
        stroke: #fff;
        stroke-miterlimit: 10;
        stroke-width: .25px;
      }

      .st2 {
        clip-rule: evenodd;
      }

      .st5 {
        clip-path: url(#clippath);
      }
    </style>
    <clipPath id="clippath">
      <path class="st2" d="M15.99,9.27c3.71,0,6.72,3.01,6.72,6.72s-3.01,6.72-6.72,6.72-6.72-3.01-6.72-6.72,3.01-6.72,6.72-6.72M15.99,6.1c5.46,0,9.89,4.43,9.89,9.89s-4.43,9.89-9.89,9.89-9.89-4.43-9.89-9.89S10.53,6.1,15.99,6.1Z"/>
    </clipPath>
    <clipPath id="clippath-1">
      <path class="st2" d="M15.99,15.99c5.46,0,9.89,4.43,9.89,9.89h-3.16c0-3.71-3.01-6.72-6.72-6.72v-3.16Z"/>
    </clipPath>
  </defs>
  <g>
    <path class="st0" d="M15.99,9.27c3.71,0,6.72,3.01,6.72,6.72s-3.01,6.72-6.72,6.72-6.72-3.01-6.72-6.72,3.01-6.72,6.72-6.72M15.99,6.1c5.46,0,9.89,4.43,9.89,9.89s-4.43,9.89-9.89,9.89-9.89-4.43-9.89-9.89S10.53,6.1,15.99,6.1Z"/>
    <g class="st5">
      <rect class="st3" x="6.1" y="6.1" width="19.78" height="19.78"/>
    </g>
    <path class="st1" d="M15.99,9.27c3.71,0,6.72,3.01,6.72,6.72s-3.01,6.72-6.72,6.72-6.72-3.01-6.72-6.72,3.01-6.72,6.72-6.72M15.99,6.1c5.46,0,9.89,4.43,9.89,9.89s-4.43,9.89-9.89,9.89-9.89-4.43-9.89-9.89S10.53,6.1,15.99,6.1Z"/>
  </g>
  <g>
    <path class="st0" d="M15.99,15.99c5.46,0,9.89,4.43,9.89,9.89h-3.16c0-3.71-3.01-6.72-6.72-6.72v-3.16Z"/>
    <g class="st4">
      <rect class="st3" x="15.99" y="15.99" width="9.89" height="9.89"/>
    </g>
    <path class="st1" d="M15.99,15.99c5.46,0,9.89,4.43,9.89,9.89h-3.16c0-3.71-3.01-6.72-6.72-6.72v-3.16Z"/>
  </g>
</svg>